<svg width="31" height="30" viewBox="0 0 31 30" fill="none" xmlns="http://www.w3.org/2000/svg">
<path d="M0.176285 5.54938C0.351336 5.29575 0.633003 5.13898 0.938965 5.12577L19.9076 4.29916C20.4518 4.27508 20.9066 4.69987 20.9299 5.24753C20.953 5.79499 20.5335 6.25755 19.9919 6.28107L2.30748 7.05178L5.78461 18.0198H21.2582L24.0538 2.63113C24.1152 2.29386 24.3443 2.01249 24.6602 1.88719L29.2388 0.068693C29.7434 -0.131041 30.3128 0.119543 30.511 0.629084C30.7088 1.1389 30.461 1.71493 29.9567 1.91528L25.8856 3.53218L23.0407 19.191C22.955 19.6617 22.5491 20.0036 22.0755 20.0036H21.6036L22.6812 23.0297C22.7714 23.2832 22.7343 23.5647 22.5808 23.7849C22.4275 24.0052 22.1782 24.1362 21.912 24.1362H21.1562C21.6246 24.6632 21.912 25.357 21.912 26.1201C21.912 27.761 20.5914 29.0958 18.9686 29.0958C17.3459 29.0958 16.0252 27.761 16.0252 26.1201C16.0252 25.3571 16.3127 24.6632 16.781 24.1362H10.3636C10.8321 24.6632 11.1195 25.357 11.1195 26.1201C11.1195 27.761 9.7992 29.0958 8.17612 29.0958C6.55297 29.0958 5.2327 27.761 5.2327 26.1201C5.2327 25.3571 5.52011 24.6632 5.98833 24.1362H5.06914C4.61749 24.1362 4.25151 23.7662 4.25151 23.3097C4.25151 22.8531 4.61756 22.4831 5.06914 22.4831H20.7487L19.8658 20.0033H5.06921C4.64254 20.0033 4.26499 19.7246 4.13504 19.3142L0.0469475 6.41923C-0.0469437 6.12492 0.00123405 5.80315 0.176285 5.54938ZM18.9685 27.4429C19.69 27.4429 20.2768 26.8498 20.2768 26.1204C20.2768 25.391 19.69 24.7978 18.9685 24.7978C18.2471 24.7978 17.6604 25.391 17.6604 26.1204C17.6604 26.8498 18.2471 27.4429 18.9685 27.4429ZM8.17612 27.4429C8.8976 27.4429 9.48428 26.8498 9.48428 26.1204C9.48428 25.391 8.8976 24.7978 8.17612 24.7978C7.45464 24.7978 6.86796 25.391 6.86796 26.1204C6.86796 26.8498 7.45464 27.4429 8.17612 27.4429Z" fill="#093987"/>
</svg>
